<svg width="current" height="current" viewBox="0 0 16 16" fill="none" xmlns="http://www.w3.org/2000/svg">
<path d="M14.9593 0.631592L14.8283 0.656153L10.4564 2.35089L5.54412 0.631592L0.926573 2.18715C0.754643 2.24446 0.631836 2.39183 0.631836 2.58013V14.9591C0.631836 15.0676 0.674965 15.1718 0.751734 15.2485C0.828503 15.3253 0.932624 15.3684 1.04119 15.3684L1.17219 15.3439L5.54412 13.6491L10.4564 15.3684L15.0739 13.8129C15.2459 13.7556 15.3687 13.6082 15.3687 13.4199V1.04095C15.3687 0.93238 15.3255 0.828259 15.2488 0.75149C15.172 0.67472 15.0679 0.631592 14.9593 0.631592ZM6.36283 2.65381L9.63768 3.80001V13.3462L6.36283 12.2V2.65381ZM2.26926 3.46434L4.7254 2.63744V12.2164L2.26926 13.1661V3.46434ZM13.7313 12.5357L11.2751 13.3626V3.79183L13.7313 2.84212V12.5357Z" fill="#27292D"/>
</svg>
