<svg width="current" height="current" viewBox="0 0 36 24" fill="current" xmlns="http://www.w3.org/2000/svg">
<path d="M24.333 10.4165C26.9613 10.4165 29.0672 8.29484 29.0672 5.6665C29.0672 3.03817 26.9613 0.916504 24.333 0.916504C21.7047 0.916504 19.583 3.03817 19.583 5.6665C19.583 8.29484 21.7047 10.4165 24.333 10.4165ZM11.6663 10.4165C14.2947 10.4165 16.4005 8.29484 16.4005 5.6665C16.4005 3.03817 14.2947 0.916504 11.6663 0.916504C9.03801 0.916504 6.91634 3.03817 6.91634 5.6665C6.91634 8.29484 9.03801 10.4165 11.6663 10.4165ZM11.6663 13.5832C7.97717 13.5832 0.583008 15.4357 0.583008 19.1248V23.0832H22.7497V19.1248C22.7497 15.4357 15.3555 13.5832 11.6663 13.5832ZM24.333 13.5832C23.8738 13.5832 23.3513 13.6148 22.7972 13.6623C24.6338 14.9923 25.9163 16.7815 25.9163 19.1248V23.0832H35.4163V19.1248C35.4163 15.4357 28.0222 13.5832 24.333 13.5832Z" fill="current"/>
</svg>
